<svg xmlns="http://www.w3.org/2000/svg" viewBox="0 0 640 360" width="640" height="360" role="img" aria-label="Odškrtávací seznam">
  <defs>
    <linearGradient id="g" x1="0" y1="0" x2="1" y2="1">
      <stop offset="0" stop-color="#e83792"/><stop offset="1" stop-color="#523792"/>
    </linearGradient>
  </defs>
  <rect width="640" height="360" fill="url(#g)"/>
  <circle cx="580" cy="390" r="140" fill="#fff" opacity="0.08"/>
  <circle cx="40" cy="-20" r="90" fill="#fff" opacity="0.07"/>
  <g transform="translate(215, 75) scale(1.7500)"
     fill="none" stroke="#fff" stroke-width="4.5" stroke-linecap="round" stroke-linejoin="round" color="#e83792">
    
    <rect x="16" y="16" width="88" height="94" rx="12"/>
    <rect x="44" y="6" width="32" height="20" rx="7" fill="#fff" stroke="none"/>
    <rect x="30" y="40" width="18" height="18" rx="5" fill="#fff" stroke="none"/>
    <path d="M34.5 49 l3.5 4 l6 -8" stroke="currentColor" stroke-width="4"/>
    <path d="M58 49 H90" opacity="0.9"/>
    <rect x="30" y="66" width="18" height="18" rx="5" fill="#fff" stroke="none"/>
    <path d="M34.5 75 l3.5 4 l6 -8" stroke="currentColor" stroke-width="4"/>
    <path d="M58 75 H90" opacity="0.9"/>
    <rect x="30" y="92" width="18" height="18" rx="5"/>
    <path d="M58 101 H82" opacity="0.6"/>
  </g>
</svg>
